<mxfile host="app.diagrams.net" modified="2021-08-24T21:39:32.296Z" agent="5.0 (Windows NT 10.0; Win64; x64) AppleWebKit/537.36 (KHTML, like Gecko) Chrome/92.0.4515.159 Safari/537.36 Edg/92.0.902.78" etag="4NBurJyirWrpGx_ZvYmd" version="14.9.9" type="github">
  <diagram name="Page-1" id="10a91c8b-09ff-31b1-d368-03940ed4cc9e">
    <mxGraphModel dx="981" dy="542" grid="1" gridSize="10" guides="1" tooltips="1" connect="1" arrows="1" fold="1" page="1" pageScale="1" pageWidth="1100" pageHeight="850" background="none" math="0" shadow="0">
      <root>
        <mxCell id="0" />
        <mxCell id="1" parent="0" />
        <mxCell id="7rNRjbFJCjPo1PsjeHB5-1" value="root" style="ellipse;whiteSpace=wrap;html=1;" vertex="1" parent="1">
          <mxGeometry x="490" y="10" width="120" height="80" as="geometry" />
        </mxCell>
        <mxCell id="7rNRjbFJCjPo1PsjeHB5-2" value="" style="ellipse;whiteSpace=wrap;html=1;" vertex="1" parent="1">
          <mxGeometry x="310" y="100" width="120" height="80" as="geometry" />
        </mxCell>
        <mxCell id="7rNRjbFJCjPo1PsjeHB5-3" value="" style="ellipse;whiteSpace=wrap;html=1;" vertex="1" parent="1">
          <mxGeometry x="690" y="110" width="120" height="80" as="geometry" />
        </mxCell>
        <mxCell id="7rNRjbFJCjPo1PsjeHB5-4" value="" style="ellipse;whiteSpace=wrap;html=1;" vertex="1" parent="1">
          <mxGeometry x="150" y="270" width="120" height="80" as="geometry" />
        </mxCell>
        <mxCell id="7rNRjbFJCjPo1PsjeHB5-5" value="" style="ellipse;whiteSpace=wrap;html=1;" vertex="1" parent="1">
          <mxGeometry x="410" y="270" width="120" height="80" as="geometry" />
        </mxCell>
        <mxCell id="7rNRjbFJCjPo1PsjeHB5-10" value="" style="endArrow=classic;html=1;entryX=0.958;entryY=0.263;entryDx=0;entryDy=0;entryPerimeter=0;" edge="1" parent="1" source="7rNRjbFJCjPo1PsjeHB5-1" target="7rNRjbFJCjPo1PsjeHB5-2">
          <mxGeometry relative="1" as="geometry">
            <mxPoint x="500" y="280" as="sourcePoint" />
            <mxPoint x="600" y="280" as="targetPoint" />
            <Array as="points">
              <mxPoint x="460" y="100" />
            </Array>
          </mxGeometry>
        </mxCell>
        <mxCell id="7rNRjbFJCjPo1PsjeHB5-11" value="right" style="edgeLabel;resizable=0;html=1;align=center;verticalAlign=middle;" connectable="0" vertex="1" parent="7rNRjbFJCjPo1PsjeHB5-10">
          <mxGeometry relative="1" as="geometry" />
        </mxCell>
        <mxCell id="7rNRjbFJCjPo1PsjeHB5-16" value="" style="endArrow=classic;html=1;exitX=1;exitY=1;exitDx=0;exitDy=0;entryX=-0.017;entryY=0.338;entryDx=0;entryDy=0;entryPerimeter=0;" edge="1" parent="1" source="7rNRjbFJCjPo1PsjeHB5-1" target="7rNRjbFJCjPo1PsjeHB5-3">
          <mxGeometry relative="1" as="geometry">
            <mxPoint x="470" y="280" as="sourcePoint" />
            <mxPoint x="630" y="280" as="targetPoint" />
          </mxGeometry>
        </mxCell>
        <mxCell id="7rNRjbFJCjPo1PsjeHB5-17" value="Label" style="edgeLabel;resizable=0;html=1;align=center;verticalAlign=middle;" connectable="0" vertex="1" parent="7rNRjbFJCjPo1PsjeHB5-16">
          <mxGeometry relative="1" as="geometry" />
        </mxCell>
        <mxCell id="7rNRjbFJCjPo1PsjeHB5-18" value="Source" style="edgeLabel;resizable=0;html=1;align=left;verticalAlign=bottom;" connectable="0" vertex="1" parent="7rNRjbFJCjPo1PsjeHB5-16">
          <mxGeometry x="-1" relative="1" as="geometry" />
        </mxCell>
      </root>
    </mxGraphModel>
  </diagram>
</mxfile>
